<svg width="130" height="38" viewBox="0 0 130 38" fill="none" xmlns="http://www.w3.org/2000/svg">
<path d="M111.839 1.07825H105.022C104.614 1.07825 104.23 1.27326 103.99 1.603C103.831 1.82143 103.745 2.08475 103.745 2.35504V35.3683C103.745 35.8974 104.014 36.3901 104.46 36.6758C104.71 36.8364 105.001 36.9217 105.299 36.9217H112.484C113.005 36.9217 113.493 36.6706 113.796 36.2473C113.993 35.9734 114.098 35.6449 114.098 35.308V23.1684C114.098 22.9409 114.282 22.7565 114.51 22.7565C114.686 22.7565 114.842 22.8682 114.899 23.0345L119.293 35.8147C119.384 36.0788 119.54 36.3153 119.748 36.5019C120.049 36.7722 120.439 36.9217 120.844 36.9217H127.259C127.767 36.9217 128.249 36.7002 128.58 36.3153C128.851 35.9996 129 35.5973 129 35.1811V2.61702C129 2.18511 128.818 1.77309 128.5 1.48158C128.216 1.22213 127.846 1.07825 127.461 1.07825H120.33C119.905 1.07825 119.498 1.24686 119.197 1.54709C118.895 1.84817 118.725 2.25693 118.725 2.68319V15.0546C118.725 15.3501 118.408 15.5371 118.15 15.3938C118.066 15.3474 118.002 15.2717 117.971 15.1812L113.508 2.26802C113.382 1.90236 113.139 1.58829 112.817 1.37401C112.527 1.18114 112.187 1.07825 111.839 1.07825Z" fill="white" stroke="white"/>
<path d="M98.9245 1H90.8534C90.422 1 90.0104 1.18081 89.7186 1.49848C89.4582 1.78194 89.3133 2.15258 89.3124 2.53749L89.2364 35.659C89.2357 35.9694 89.3429 36.2704 89.5398 36.5104C89.7939 36.8203 90.1736 37 90.5743 37H98.922C99.3016 37 99.6689 36.8657 99.959 36.6208C100.321 36.3153 100.529 35.866 100.529 35.3925V2.60494C100.529 2.17868 100.36 1.76993 100.058 1.46884C99.7572 1.16861 99.3496 1 98.9245 1Z" fill="white" stroke="white"/>
<path d="M2.54289 37H10.3847C10.7106 37 11.0305 36.913 11.3115 36.7481C11.8717 36.4193 12.2157 35.8185 12.2157 35.169V23.872C12.2157 23.6589 12.3005 23.4545 12.4513 23.304C12.6018 23.1539 12.8056 23.0696 13.0182 23.0696H16.5461C16.9829 23.0696 17.3971 22.8758 17.6771 22.5406C17.8984 22.2756 18.0196 21.9413 18.0196 21.5961V18.4484C18.0196 18.0983 17.889 17.7609 17.6532 17.5022C17.387 17.21 17.01 17.0435 16.6147 17.0435H13.1556C12.8601 17.0435 12.5818 16.9045 12.4043 16.6683C12.2819 16.5054 12.2157 16.3072 12.2157 16.1035V8.97015C12.2157 8.77348 12.2692 8.58051 12.3706 8.41196C12.5665 8.0862 12.9188 7.88696 13.2989 7.88696H16.7858C17.0799 7.88696 17.3686 7.80715 17.621 7.65604C18.1115 7.36237 18.4118 6.83266 18.4118 6.26095V2.62601C18.4118 2.0543 18.1115 1.52459 17.621 1.23092C17.3686 1.07981 17.0799 1 16.7858 1H2.41965C2.1102 1 1.81025 1.10689 1.57053 1.30259C1.25902 1.55691 1.0779 1.93748 1.07699 2.33962L1.00173 35.4553C1.00064 35.9356 1.22352 36.389 1.60451 36.6814C1.8737 36.888 2.20355 37 2.54289 37Z" fill="#01FFA7"/>
<path d="M30.3544 1H22.1769C21.8711 1 21.5736 1.099 21.3288 1.28219C20.9735 1.54807 20.7635 1.96518 20.7615 2.40893L20.6116 35.3837C20.6093 35.9065 20.861 36.3978 21.2867 36.7013C21.5594 36.8956 21.8858 37 22.2206 37H30.5753C30.9243 37 31.2609 36.8701 31.5194 36.6356C31.813 36.3693 31.9804 35.9913 31.9804 35.5949V2.62601C31.9804 2.0543 31.6802 1.52459 31.1896 1.23092C30.9372 1.07981 30.6486 1 30.3544 1Z" fill="#01FFA7"/>
<path d="M44.7799 1H36.6932C36.3824 1 36.079 1.09545 35.8242 1.27345C35.5685 1.45202 35.3741 1.70501 35.2673 1.99801L35.2302 2.09996C35.1557 2.30421 35.1177 2.51991 35.1177 2.73729V35.3855C35.1177 35.9075 35.37 36.3973 35.7951 36.7002C36.0687 36.8952 36.3962 37 36.7322 37H51.2582C51.6181 37 51.9611 36.8475 52.2022 36.5802C52.4128 36.3467 52.5294 36.0433 52.5294 35.7288V31.2882C52.5294 30.9826 52.4302 30.6853 52.2466 30.4411C51.9802 30.0867 51.5628 29.8783 51.1195 29.8783H47.1358C46.9233 29.8783 46.7195 29.794 46.569 29.6438C46.4181 29.4933 46.3334 29.2889 46.3334 29.0758V2.55346C46.3334 2.02433 46.064 1.53158 45.6186 1.24589C45.3684 1.08534 45.0772 1 44.7799 1Z" fill="#01FFA7"/>
<path d="M56.0859 37H62.7566C63.0452 37 63.3295 36.9295 63.5847 36.7947C64.1658 36.4877 64.5294 35.8844 64.5294 35.2272V19.4264C64.5294 19.1909 64.7203 19 64.9558 19C65.1628 19 65.3399 19.1487 65.3758 19.3525L67.902 33.713L68.3644 35.8881C68.4209 36.1541 68.5535 36.3979 68.7459 36.5899C69.0091 36.8525 69.3657 37 69.7374 37H70.7025C71.0708 37 71.4261 36.8639 71.7002 36.6178C71.9334 36.4083 72.0948 36.1309 72.1615 35.8246L72.451 34.4957L75.2231 19.2821C75.2529 19.1187 75.3952 19 75.5613 19C75.75 19 75.9034 19.152 75.9051 19.3406L76.0526 35.5297C76.0566 35.9659 76.2523 36.3782 76.5877 36.6571C76.8541 36.8787 77.1898 37 77.5364 37H84.7606C85.1148 37 85.4546 36.8595 85.7053 36.6093C85.9568 36.3584 86.0981 36.0178 86.0981 35.6625V2.6137C86.0981 2.2768 85.9926 1.94835 85.7965 1.67441C85.4935 1.25112 85.0049 1 84.4844 1H74.3738C74.041 1 73.7161 1.10131 73.4423 1.29045C73.0609 1.55396 72.8089 1.96671 72.7488 2.42642L70.782 17.4725C70.7497 17.7196 70.5392 17.9043 70.29 17.9043C70.0444 17.9043 69.8358 17.7247 69.7994 17.4818L67.5706 2.63196C67.4828 2.04673 67.1295 1.53489 66.6134 1.24524C66.327 1.08445 66.004 1 65.6754 1H56.5958C55.9526 1 55.3378 1.26462 54.8957 1.73171C54.4842 2.16644 54.2549 2.74227 54.2549 3.34084V35.169C54.2549 35.8185 54.599 36.4193 55.1591 36.7481C55.4401 36.913 55.7601 37 56.0859 37Z" fill="#01FFA7"/>
<path d="M2.54289 37H10.3847C10.7106 37 11.0305 36.913 11.3115 36.7481C11.8717 36.4193 12.2157 35.8185 12.2157 35.169V23.872C12.2157 23.6589 12.3005 23.4545 12.4513 23.304C12.6018 23.1539 12.8056 23.0696 13.0182 23.0696H16.5461C16.9829 23.0696 17.3971 22.8758 17.6771 22.5406C17.8984 22.2756 18.0196 21.9413 18.0196 21.5961V18.4484C18.0196 18.0983 17.889 17.7609 17.6532 17.5022C17.387 17.21 17.01 17.0435 16.6147 17.0435H13.1556C12.8601 17.0435 12.5818 16.9045 12.4043 16.6683C12.2819 16.5054 12.2157 16.3072 12.2157 16.1035V8.97015C12.2157 8.77348 12.2692 8.58051 12.3706 8.41196C12.5665 8.0862 12.9188 7.88696 13.2989 7.88696H16.7858C17.0799 7.88696 17.3686 7.80715 17.621 7.65604C18.1115 7.36237 18.4118 6.83266 18.4118 6.26095V2.62601C18.4118 2.0543 18.1115 1.52459 17.621 1.23092C17.3686 1.07981 17.0799 1 16.7858 1H2.41965C2.1102 1 1.81025 1.10689 1.57053 1.30259C1.25902 1.55691 1.0779 1.93748 1.07699 2.33962L1.00173 35.4553C1.00064 35.9356 1.22352 36.389 1.60451 36.6814C1.8737 36.888 2.20355 37 2.54289 37Z" stroke="#01FFA7"/>
<path d="M30.3544 1H22.1769C21.8711 1 21.5736 1.099 21.3288 1.28219C20.9735 1.54807 20.7635 1.96518 20.7615 2.40893L20.6116 35.3837C20.6093 35.9065 20.861 36.3978 21.2867 36.7013C21.5594 36.8956 21.8858 37 22.2206 37H30.5753C30.9243 37 31.2609 36.8701 31.5194 36.6356C31.813 36.3693 31.9804 35.9913 31.9804 35.5949V2.62601C31.9804 2.0543 31.6802 1.52459 31.1896 1.23092C30.9372 1.07981 30.6486 1 30.3544 1Z" stroke="#01FFA7"/>
<path d="M44.7799 1H36.6932C36.3824 1 36.079 1.09545 35.8242 1.27345C35.5685 1.45202 35.3741 1.70501 35.2673 1.99801L35.2302 2.09996C35.1557 2.30421 35.1177 2.51991 35.1177 2.73729V35.3855C35.1177 35.9075 35.37 36.3973 35.7951 36.7002C36.0687 36.8952 36.3962 37 36.7322 37H51.2582C51.6181 37 51.9611 36.8475 52.2022 36.5802C52.4128 36.3467 52.5294 36.0433 52.5294 35.7288V31.2882C52.5294 30.9826 52.4302 30.6853 52.2466 30.4411C51.9802 30.0867 51.5628 29.8783 51.1195 29.8783H47.1358C46.9233 29.8783 46.7195 29.794 46.569 29.6438C46.4181 29.4933 46.3334 29.2889 46.3334 29.0758V2.55346C46.3334 2.02433 46.064 1.53158 45.6186 1.24589C45.3684 1.08534 45.0772 1 44.7799 1Z" stroke="#01FFA7"/>
<path d="M56.0859 37H62.7566C63.0452 37 63.3295 36.9295 63.5847 36.7947C64.1658 36.4877 64.5294 35.8844 64.5294 35.2272V19.4264C64.5294 19.1909 64.7203 19 64.9558 19C65.1628 19 65.3399 19.1487 65.3758 19.3525L67.902 33.713L68.3644 35.8881C68.4209 36.1541 68.5535 36.3979 68.7459 36.5899C69.0091 36.8525 69.3657 37 69.7374 37H70.7025C71.0708 37 71.4261 36.8639 71.7002 36.6178C71.9334 36.4083 72.0948 36.1309 72.1615 35.8246L72.451 34.4957L75.2231 19.2821C75.2529 19.1187 75.3952 19 75.5613 19C75.75 19 75.9034 19.152 75.9051 19.3406L76.0526 35.5297C76.0566 35.9659 76.2523 36.3782 76.5877 36.6571C76.8541 36.8787 77.1898 37 77.5364 37H84.7606C85.1148 37 85.4546 36.8595 85.7053 36.6093C85.9568 36.3584 86.0981 36.0178 86.0981 35.6625V2.6137C86.0981 2.2768 85.9926 1.94835 85.7965 1.67441C85.4935 1.25112 85.0049 1 84.4844 1H74.3738C74.041 1 73.7161 1.10131 73.4423 1.29045C73.0609 1.55396 72.8089 1.96671 72.7488 2.42642L70.782 17.4725C70.7497 17.7196 70.5392 17.9043 70.29 17.9043C70.0444 17.9043 69.8358 17.7247 69.7994 17.4818L67.5706 2.63196C67.4828 2.04673 67.1295 1.53489 66.6134 1.24524C66.327 1.08445 66.004 1 65.6754 1H56.5958C55.9526 1 55.3378 1.26462 54.8957 1.73171C54.4842 2.16644 54.2549 2.74227 54.2549 3.34084V35.169C54.2549 35.8185 54.599 36.4193 55.1591 36.7481C55.4401 36.913 55.7601 37 56.0859 37Z" stroke="#01FFA7"/>
</svg>
